<svg xmlns="http://www.w3.org/2000/svg" viewBox="0 0 361 100" width="361" height="100" role="img" aria-label="BatchFit">
  
  <g transform="translate(6,6) scale(0.88)">
    <rect x="12" y="12" width="34.5" height="21" rx="6" fill="#2E9E5B"></rect>
    <rect x="53.5" y="12" width="34.5" height="21" rx="6" fill="#2E9E5B"></rect>
    <rect x="12" y="39.5" width="34.5" height="21" rx="6" fill="#2E9E5B"></rect>
    <rect x="53.5" y="39.5" width="34.5" height="21" rx="6" fill="#2E9E5B"></rect>
    <rect x="12" y="67" width="34.5" height="21" rx="6" fill="#2E9E5B"></rect>
    <rect x="53.5" y="67" width="34.5" height="21" rx="6" fill="#FB6E4E"></rect>
  </g>
  
  <path d="M136.612 72L116.299 72L116.299 28.406L135.613 28.406Q143.061 28.406 146.845 31.116Q150.629 33.825 150.629 39.002L150.629 39.002Q150.629 42.332 149.267 44.360Q147.904 46.389 145.846 47.388L145.846 47.388Q143.999 48.326 142.122 48.659L142.122 48.659Q146.603 49.446 149.297 52.171L149.297 52.171Q152.052 55.017 152.052 60.012L152.052 60.012Q152.052 64.522 149.917 67.156Q147.783 69.790 144.271 70.895Q140.760 72 136.612 72L136.612 72ZM125.653 52.201L125.653 64.734L134.978 64.734Q138.005 64.734 139.655 63.872Q141.305 63.009 141.956 61.601Q142.606 60.193 142.606 58.528L142.606 58.528Q142.606 56.591 141.744 55.183Q140.881 53.775 139.019 52.988Q137.157 52.201 134.100 52.201L134.100 52.201L125.653 52.201ZM125.653 35.672L125.653 45.329L134.917 45.329Q137.854 45.329 139.549 44.194Q141.244 43.059 141.244 40.485L141.244 40.485Q141.244 38.336 139.882 37.004Q138.520 35.672 135.068 35.672L135.068 35.672L125.653 35.672Z M166.243 72.787L166.243 72.787Q163.124 72.787 160.491 71.682Q157.857 70.577 156.267 68.397Q154.678 66.218 154.678 62.948L154.678 62.948Q154.678 59.437 156.706 56.984Q158.735 54.532 162.610 53.246Q166.485 51.959 171.964 51.959L171.964 51.959L176.021 51.959L176.021 50.899Q176.021 47.660 174.840 46.071Q173.660 44.481 170.935 44.481L170.935 44.481Q168.331 44.481 166.954 45.859Q165.577 47.236 165.274 49.779L165.274 49.779L156.071 48.205Q156.585 45.480 158.417 43.286Q160.248 41.091 163.488 39.789Q166.727 38.487 171.450 38.487L171.450 38.487Q175.779 38.487 178.776 39.865Q181.773 41.242 183.332 44.330Q184.891 47.418 184.891 52.595L184.891 52.595L184.891 63.705Q184.891 64.734 185.179 65.067Q185.466 65.400 186.405 65.400L186.405 65.400L187.888 65.400L187.888 72L183.589 72Q180.047 72 178.231 70.214L178.231 70.214Q177.050 69.094 176.626 67.308L176.626 67.308Q175.900 68.609 174.719 69.760L174.719 69.760Q173.357 71.092 171.298 71.939Q169.240 72.787 166.243 72.787ZM168.846 66.611L168.846 66.611Q170.965 66.611 172.600 65.643Q174.235 64.674 175.173 62.721Q176.112 60.769 176.112 57.862L176.112 57.862L176.112 57.166L172.297 57.166Q169.058 57.166 167.257 58.014Q165.455 58.861 164.729 60.087Q164.002 61.313 164.002 62.464L164.002 62.464Q164.002 63.372 164.441 64.341Q164.880 65.310 165.925 65.960Q166.969 66.611 168.846 66.611Z M209.829 72L201.837 72Q198.204 72 196.251 70.229Q194.299 68.458 194.299 65.128L194.299 65.128L194.299 45.904L189.637 45.904L189.637 39.305L194.299 39.305L194.299 32.887L203.320 30.707L203.320 39.305L209.375 39.305L209.375 45.904L203.320 45.904L203.320 63.705Q203.320 64.704 203.608 65.052Q203.895 65.400 204.834 65.400L204.834 65.400L209.829 65.400L209.829 72Z M229.469 72.787L229.469 72.787Q224.322 72.787 220.553 70.698Q216.784 68.609 214.756 64.765Q212.728 60.920 212.728 55.622L212.728 55.622Q212.728 50.354 214.756 46.510Q216.784 42.665 220.538 40.591Q224.292 38.518 229.439 38.518L229.439 38.518Q233.132 38.518 236.311 39.850Q239.489 41.182 241.715 43.800Q243.940 46.419 244.757 50.294L244.757 50.294L236.220 52.110Q235.554 48.629 233.798 46.888Q232.042 45.147 229.378 45.147L229.378 45.147Q225.715 45.147 223.944 48.054Q222.173 50.960 222.173 55.743L222.173 55.743Q222.173 60.496 223.929 63.327Q225.685 66.157 229.408 66.157L229.408 66.157Q231.982 66.157 233.753 64.598Q235.524 63.039 236.341 59.830L236.341 59.830L244.606 61.374Q244.000 64.341 242.517 66.505Q241.033 68.670 238.960 70.047Q236.886 71.425 234.464 72.106Q232.042 72.787 229.469 72.787Z M258.463 72L249.442 72L249.442 26.590L258.463 26.590L258.463 44.572Q259.856 41.969 262.157 40.395L262.157 40.395Q264.881 38.518 268.756 38.518L268.756 38.518Q272.571 38.518 274.993 40.243Q277.415 41.969 278.595 45.026Q279.776 48.084 279.776 52.080L279.776 52.080L279.776 72L270.754 72L270.754 53.140Q270.754 49.113 269.695 47.221Q268.635 45.329 265.699 45.329L265.699 45.329Q262.157 45.329 260.310 48.023Q258.463 50.718 258.463 56.106L258.463 56.106L258.463 72Z M294.814 72L285.460 72L285.460 28.406L315.885 28.406L315.885 36.308L294.814 36.308L294.814 45.692L313.281 45.692L313.281 53.594L294.814 53.594L294.814 72Z M329.319 72L320.297 72L320.297 39.305L329.319 39.305L329.319 72ZM324.808 35.399L324.808 35.399Q322.114 35.399 320.479 33.765Q318.844 32.130 318.844 29.436L318.844 29.436Q318.844 26.711 320.479 25.091Q322.114 23.472 324.808 23.472L324.808 23.472Q327.533 23.472 329.152 25.091Q330.772 26.711 330.772 29.436L330.772 29.436Q330.772 32.130 329.152 33.765Q327.533 35.399 324.808 35.399Z M353.772 72L345.780 72Q342.147 72 340.195 70.229Q338.242 68.458 338.242 65.128L338.242 65.128L338.242 45.904L333.580 45.904L333.580 39.305L338.242 39.305L338.242 32.887L347.263 30.707L347.263 39.305L353.318 39.305L353.318 45.904L347.263 45.904L347.263 63.705Q347.263 64.704 347.551 65.052Q347.839 65.400 348.777 65.400L348.777 65.400L353.772 65.400L353.772 72Z" fill="#14241B"></path>
</svg>